<?xml version="1.0" encoding="UTF-8"?>
<!DOCTYPE svg PUBLIC "-//W3C//DTD SVG 1.1//EN" "http://www.w3.org/Graphics/SVG/1.1/DTD/svg11.dtd">
<!-- Creator: CorelDRAW X8 -->
<svg xmlns="http://www.w3.org/2000/svg" xml:space="preserve" width="8.4666mm" height="8.4666mm" version="1.1" style="shape-rendering:geometricPrecision; text-rendering:geometricPrecision; image-rendering:optimizeQuality; fill-rule:evenodd; clip-rule:evenodd"
viewBox="0 0 847 847"
 xmlns:xlink="http://www.w3.org/1999/xlink">
 <defs>
  <style type="text/css">
   <![CDATA[
    .fil0 {fill:#27ADE4}
    .fil1 {fill:#2D78BC}
    .fil2 {fill:white}
   ]]>
  </style>
 </defs>
 <g id="Camada_x0020_1">
  <metadata id="CorelCorpID_0Corel-Layer"/>
  <g id="_2140825344976">
   <circle class="fil0" cx="423" cy="423" r="423"/>
   <g>
    <path class="fil1" d="M144 348l-13 -33 -13 33 26 0zm291 -13c-2,2 -5,2 -9,2l-24 0 0 -19 24 0c4,0 7,1 9,2 3,1 4,4 4,7 0,4 -1,7 -4,8l0 0zm168 13l-14 -33 -13 33 27 0 0 0zm-312 35l-20 0 0 -64 -28 64 -17 0 -28 -64 0 64 -39 0 -8 -18 -40 0 -7 18 -21 0 34 -82 29 0 33 78 0 -78 31 0 26 56 23 -56 32 0 0 82 0 0 0 0zm79 0l-65 0 0 -82 65 0 0 17 -45 0 0 15 44 0 0 17 -44 0 0 16 45 0 0 17 0 0zm91 -60c0,13 -9,20 -14,22 4,2 8,5 10,7 2,4 3,8 3,15l0 16 -20 0 0 -10c0,-5 1,-12 -3,-16 -3,-3 -7,-4 -14,-4l-21 0 0 30 -19 0 0 -82 45 0c9,0 17,1 23,4 6,4 10,9 10,18l0 0zm31 60l-20 0 0 -82 20 0 0 82zm228 0l-27 0 -37 -61 0 61 -39 0 -8 -18 -40 0 -7 18 -23 0c-9,0 -21,-2 -28,-9 -7,-7 -10,-16 -10,-31 0,-12 2,-23 10,-32 7,-7 16,-10 30,-10l18 0 0 18 -18 0c-7,0 -11,1 -15,5 -3,3 -5,10 -5,18 0,9 1,15 5,20 3,3 8,4 13,4l9 0 27 -65 29 0 33 78 0 -78 29 0 34 57 0 -57 20 0 0 82 0 0zm-637 16l33 0 7 -18 17 0 7 18 65 0 0 -14 6 14 33 0 6 -14 0 14 161 0 0 -30 3 0c3,1 3,1 3,4l0 26 84 0 0 -7c6,4 17,7 31,7l35 0 7 -18 17 0 7 18 68 0 0 -17 10 17 54 0 0 -114 -53 0 0 14 -8 -14 -55 0 0 14 -7 -14 -74 0c-13,0 -24,2 -32,7l0 -7 -52 0 0 7c-5,-5 -13,-7 -21,-7l-188 0 -12 30 -13 -30 -59 0 0 14 -7 -14 -50 0 -23 54 -27 60 27 0z"/>
   </g>
   <g>
    <path class="fil2" d="M144 355l-13 -33 -13 33 26 0zm291 -13c-2,1 -5,1 -9,1l-24 0 0 -18 24 0c4,0 7,0 9,2 3,1 4,3 4,7 0,3 -1,6 -4,8l0 0zm168 13l-14 -33 -13 33 27 0 0 0zm-312 35l-20 0 0 -64 -28 64 -17 0 -28 -64 0 64 -39 0 -8 -18 -40 0 -7 18 -21 0 34 -82 29 0 33 78 0 -78 31 0 26 56 23 -56 32 0 0 82 0 0 0 0zm79 0l-65 0 0 -82 65 0 0 17 -45 0 0 15 44 0 0 17 -44 0 0 16 45 0 0 17 0 0zm91 -60c0,13 -9,20 -14,22 4,2 8,4 10,7 2,4 3,8 3,15l0 16 -20 0 0 -10c0,-5 1,-12 -3,-16 -3,-3 -7,-4 -14,-4l-21 0 0 30 -19 0 0 -82 45 0c9,0 17,0 23,4 6,4 10,9 10,18l0 0zm31 60l-20 0 0 -82 20 0 0 82zm228 0l-27 0 -37 -62 0 62 -39 0 -8 -18 -40 0 -7 18 -23 0c-9,0 -21,-2 -28,-9 -7,-7 -10,-17 -10,-31 0,-13 2,-24 10,-32 7,-7 16,-10 30,-10l18 0 0 18 -18 0c-7,0 -11,1 -15,4 -3,4 -5,10 -5,19 0,9 1,15 5,19 3,3 8,4 13,4l9 0 27 -64 29 0 33 77 0 -77 29 0 34 57 0 -57 20 0 0 82 0 0zm-637 16l33 0 7 -18 17 0 7 18 65 0 0 -14 6 14 33 0 6 -14 0 14 161 0 0 -30 3 0c3,0 3,0 3,4l0 26 84 0 0 -7c6,4 17,7 31,7l35 0 7 -18 17 0 7 18 68 0 0 -17 10 17 54 0 0 -114 -53 0 0 13 -8 -13 -55 0 0 13 -7 -13 -74 0c-13,0 -24,2 -32,6l0 -6 -52 0 0 6c-5,-5 -13,-6 -21,-6l-188 0 -12 29 -13 -29 -59 0 0 13 -7 -13 -50 0 -23 54 -27 60 27 0z"/>
   </g>
   <path class="fil1" d="M780 476l0 -52 -13 0 0 0 -35 0c-11,0 -19,3 -24,7l0 -7 -53 0c-8,0 -18,2 -23,7l0 -7 -94 0 0 7c-8,-6 -21,-7 -26,-7l-63 0 0 7c-6,-6 -19,-7 -27,-7l-70 0 -15 18 -15 -18 -104 0 0 114 102 0 16 -18 16 18 62 0 0 -27 7 0c8,1 18,0 27,-4l0 31 51 0 0 -30 3 0c3,0 3,1 3,4l0 26 158 0c10,0 21,-2 26,-7l0 7 50 0c11,0 21,-1 29,-5l0 0c11,-7 19,-20 19,-35 0,-8 -3,-15 -7,-22zm-358 19l-25 0 0 27 -37 0 -24 -27 -25 27 -76 0 0 -82 78 0 23 27 25 -27 62 0c15,0 32,5 32,27 0,23 -17,28 -33,28zm116 -4c2,4 3,8 3,15l0 16 -19 0 0 -10c0,-5 0,-12 -4,-16 -2,-3 -7,-4 -14,-4l-20 0 0 30 -20 0 0 -82 45 0c10,0 17,1 23,4 6,4 10,9 10,18 0,13 -9,20 -14,22 5,2 8,5 10,7zm79 -34l-45 0 0 15 44 0 0 17 -44 0 0 16 45 0 0 17 -64 0 0 -82 64 0 0 17 0 0zm49 65l-37 0 0 -17 37 0c4,0 6,-1 8,-2 1,-2 2,-4 2,-6 0,-2 -1,-4 -2,-5 -2,-1 -4,-2 -7,-2 -18,-1 -41,1 -41,-25 0,-12 8,-25 28,-25l39 0 0 18 -36 0c-3,0 -6,0 -7,1 -3,2 -3,4 -3,6 0,3 1,5 4,6 2,1 4,1 7,1l11 0c10,1 17,3 22,7 4,4 6,9 6,17 0,18 -11,26 -31,26zm100 -8c-5,5 -14,8 -24,8l-38 0 0 -17 37 0c4,0 7,-1 8,-2 2,-2 3,-4 3,-6 0,-2 -1,-4 -3,-5 -1,-1 -3,-2 -7,-2 -18,-1 -40,1 -40,-25 0,-12 7,-25 27,-25l38 0 0 18 -34 0c-4,0 -6,0 -8,1 -2,2 -3,4 -3,6 0,3 2,5 4,6 2,1 4,1 8,1l10 0c11,1 18,3 22,7 1,1 1,1 2,2 0,0 -1,-1 -1,-1 4,5 6,10 6,16 0,7 -3,14 -7,18zm-463 -57l21 24 -22 24 -48 0 0 -16 43 0 0 -17 -43 0 0 -15 49 0 0 0zm46 24l29 -32 0 66 -29 -34zm85 -14c0,7 -4,11 -12,11l-25 0 0 -21 26 0c7,0 11,3 11,10zm87 -1c0,4 -2,6 -4,8 -3,2 -6,2 -10,2l-23 0 0 -19 23 0c4,0 7,0 10,2 2,1 4,4 4,7z"/>
   <path class="fil2" d="M780 483l0 -52 -13 0 0 0 -35 0c-11,0 -19,2 -24,6l0 -6 -53 0c-8,0 -18,2 -23,6l0 -6 -94 0 0 6c-8,-5 -21,-6 -26,-6l-63 0 0 6c-6,-5 -19,-6 -27,-6l-70 0 -15 17 -15 -17 -104 0 0 114 102 0 16 -18 16 18 62 0 0 -27 7 0c8,0 18,0 27,-4l0 31 51 0 0 -30 3 0c3,0 3,0 3,4l0 26 158 0c10,0 21,-3 26,-7l0 7 50 0c11,0 21,-2 29,-5l0 0c11,-8 19,-21 19,-35 0,-8 -3,-16 -7,-22zm-358 18l-25 0 0 28 -37 0 -24 -27 -25 27 -76 0 0 -82 78 0 23 27 25 -27 62 0c15,0 32,4 32,27 0,23 -17,27 -33,27zm116 -3c2,4 3,7 3,15l0 16 -19 0 0 -10c0,-5 0,-13 -4,-16 -2,-3 -7,-4 -14,-4l-20 0 0 30 -20 0 0 -82 45 0c10,0 17,0 23,4 6,4 10,9 10,18 0,13 -9,20 -14,22 5,1 8,4 10,7zm79 -34l-45 0 0 15 44 0 0 17 -44 0 0 16 45 0 0 17 -64 0 0 -82 64 0 0 17 0 0zm49 65l-37 0 0 -18 37 0c4,0 6,0 8,-2 1,-1 2,-3 2,-5 0,-2 -1,-4 -2,-5 -2,-2 -4,-2 -7,-2 -18,-1 -41,0 -41,-26 0,-11 8,-24 28,-24l39 0 0 17 -36 0c-3,0 -6,1 -7,2 -3,1 -3,3 -3,6 0,3 1,5 4,6 2,1 4,1 7,1l11 0c10,0 17,2 22,7 4,4 6,9 6,17 0,18 -11,26 -31,26zm100 -8c-5,5 -14,8 -24,8l-38 0 0 -18 37 0c4,0 7,0 8,-2 2,-1 3,-3 3,-5 0,-2 -1,-4 -3,-5 -1,-2 -3,-2 -7,-2 -18,-1 -40,0 -40,-26 0,-11 7,-24 27,-24l38 0 0 17 -34 0c-4,0 -6,1 -8,2 -2,1 -3,3 -3,6 0,3 2,5 4,6 2,1 4,1 8,1l10 0c11,0 18,2 22,7 1,0 1,1 2,2 0,-1 -1,-1 -1,-1 4,4 6,10 6,16 0,7 -3,13 -7,18zm-463 -57l21 24 -22 24 -48 0 0 -16 43 0 0 -17 -43 0 0 -15 49 0 0 0zm46 24l29 -32 0 65 -29 -33zm85 -14c0,7 -4,11 -12,11l-25 0 0 -21 26 0c7,0 11,3 11,10zm87 -1c0,3 -2,6 -4,8 -3,1 -6,1 -10,1l-23 0 0 -18 23 0c4,0 7,0 10,1 2,2 4,4 4,8z"/>
  </g>
 </g>
</svg>
