<?xml version="1.0" encoding="iso-8859-1"?>
<!-- Generator: Adobe Illustrator 18.0.0, SVG Export Plug-In . SVG Version: 6.00 Build 0)  -->
<!DOCTYPE svg PUBLIC "-//W3C//DTD SVG 1.1//EN" "http://www.w3.org/Graphics/SVG/1.1/DTD/svg11.dtd">
<svg xmlns="http://www.w3.org/2000/svg" xmlns:xlink="http://www.w3.org/1999/xlink" version="1.1" id="Capa_1" x="0px" y="0px" viewBox="0 0 468.075 468.075" style="enable-background:new 0 0 468.075 468.075;" xml:space="preserve" width="512px" height="512px">
<g>
	<path d="M400.352,334.783v-125.07h41.608c5.799,0,10.5-4.701,10.5-10.5c0-5.799-4.701-10.5-10.5-10.5h-41.608v-57.1   c0-5.799-4.701-10.5-10.5-10.5c-5.799,0-10.5,4.701-10.5,10.5v57.1h-26.464v-57.1c0-5.799-4.701-10.5-10.5-10.5   s-10.5,4.701-10.5,10.5v57.1h-27.535v-57.1c0-5.799-4.701-10.5-10.5-10.5c-5.799,0-10.5,4.701-10.5,10.5v57.1h-14.569v-57.1   c0-5.799-4.701-10.5-10.5-10.5c-5.799,0-10.5,4.701-10.5,10.5v57.1h-20.429v-57.1c0-5.799-4.701-10.5-10.5-10.5   c-5.799,0-10.5,4.701-10.5,10.5v57.1h-14.886v-57.1c0-5.799-4.701-10.5-10.5-10.5c-5.799,0-10.5,4.701-10.5,10.5v57.1h-20.466   v-57.1c0-5.799-4.701-10.5-10.5-10.5c-5.799,0-10.5,4.701-10.5,10.5v57.1h-16.561v-57.1c0-5.799-4.701-10.5-10.5-10.5   c-5.799,0-10.5,4.701-10.5,10.5v57.1H80.287v-57.1c0-5.799-4.701-10.5-10.5-10.5s-10.5,4.701-10.5,10.5v57.1H16.685   c-5.799,0-10.5,4.701-10.5,10.5c0,5.799,4.701,10.5,10.5,10.5h42.602v125.07c0,5.799,4.701,10.5,10.5,10.5s10.5-4.701,10.5-10.5   v-125.07h11.154v73.851c0,5.799,4.701,10.5,10.5,10.5c5.799,0,10.5-4.701,10.5-10.5v-73.851h16.561v73.851   c0,5.799,4.701,10.5,10.5,10.5c5.799,0,10.5-4.701,10.5-10.5v-73.851h20.466v73.851c0,5.799,4.701,10.5,10.5,10.5   c5.799,0,10.5-4.701,10.5-10.5v-73.851h14.886v73.851c0,5.799,4.701,10.5,10.5,10.5c5.799,0,10.5-4.701,10.5-10.5v-73.851h20.429   v73.851c0,5.799,4.701,10.5,10.5,10.5c5.799,0,10.5-4.701,10.5-10.5v-73.851h14.569v73.851c0,5.799,4.701,10.5,10.5,10.5   c5.799,0,10.5-4.701,10.5-10.5v-73.851h27.535v73.851c0,5.799,4.701,10.5,10.5,10.5s10.5-4.701,10.5-10.5v-73.851h26.464v125.07   c0,5.799,4.701,10.5,10.5,10.5C395.65,345.283,400.352,340.582,400.352,334.783z" fill="#FFFFFF"/>
	<path d="M10.5,143.57c5.799,0,10.5-4.701,10.5-10.5V90.266c0-5.169,4.205-9.374,9.374-9.374h34.763c5.799,0,10.5-4.701,10.5-10.5   c0-5.799-4.701-10.5-10.5-10.5H30.374C13.625,59.891,0,73.517,0,90.266v42.804C0,138.868,4.701,143.57,10.5,143.57z" fill="#FFFFFF"/>
	<path d="M65.137,387.184H30.374c-5.169,0-9.374-4.205-9.374-9.374v-42.804c0-5.799-4.701-10.5-10.5-10.5S0,329.207,0,335.006   v42.804c0,16.748,13.625,30.374,30.374,30.374h34.763c5.799,0,10.5-4.701,10.5-10.5C75.637,391.885,70.936,387.184,65.137,387.184z   " fill="#FFFFFF"/>
	<path d="M437.701,59.892h-34.764c-5.799,0-10.5,4.701-10.5,10.5c0,5.799,4.701,10.5,10.5,10.5h34.764   c5.169,0,9.374,4.205,9.374,9.374v42.804c0,5.799,4.701,10.5,10.5,10.5s10.5-4.701,10.5-10.5V90.266   C468.075,73.518,454.449,59.892,437.701,59.892z" fill="#FFFFFF"/>
	<path d="M457.575,324.506c-5.799,0-10.5,4.701-10.5,10.5v42.804c0,5.169-4.205,9.374-9.374,9.374h-34.764   c-5.799,0-10.5,4.701-10.5,10.5c0,5.799,4.701,10.5,10.5,10.5h34.764c16.748,0,30.374-13.626,30.374-30.374v-42.804   C468.075,329.207,463.374,324.506,457.575,324.506z" fill="#FFFFFF"/>
	<path d="M343.056,326.212H106.067c-5.799,0-10.5,4.701-10.5,10.5c0,5.799,4.701,10.5,10.5,10.5h236.988   c5.799,0,10.5-4.701,10.5-10.5C353.556,330.913,348.855,326.212,343.056,326.212z" fill="#FFFFFF"/>
</g>
<g>
</g>
<g>
</g>
<g>
</g>
<g>
</g>
<g>
</g>
<g>
</g>
<g>
</g>
<g>
</g>
<g>
</g>
<g>
</g>
<g>
</g>
<g>
</g>
<g>
</g>
<g>
</g>
<g>
</g>
</svg>
