<?xml version="1.0" encoding="UTF-8"?>
<!DOCTYPE svg PUBLIC "-//W3C//DTD SVG 1.1//EN" "http://www.w3.org/Graphics/SVG/1.1/DTD/svg11.dtd">
<!-- Creator: CorelDRAW X8 -->
<svg xmlns="http://www.w3.org/2000/svg" xml:space="preserve" width="8.4666mm" height="8.4666mm" version="1.1" style="shape-rendering:geometricPrecision; text-rendering:geometricPrecision; image-rendering:optimizeQuality; fill-rule:evenodd; clip-rule:evenodd"
viewBox="0 0 847 847"
 xmlns:xlink="http://www.w3.org/1999/xlink">
 <defs>
  <style type="text/css">
   <![CDATA[
    .fil1 {fill:#32357F}
    .fil3 {fill:#E92F30}
    .fil2 {fill:#EA2230}
    .fil0 {fill:#F3F2F2}
   ]]>
  </style>
 </defs>
 <g id="Camada_x0020_1">
  <metadata id="CorelCorpID_0Corel-Layer"/>
  <g id="_2105024586720">
   <circle class="fil0" cx="423" cy="423" r="423"/>
   <polygon class="fil1" points="400,327 345,327 345,594 400,594 "/>
   <path id="SVGCleanerId_0" class="fil1" d="M450 328l0 50 45 0 0 150c0,21 6,38 17,51 11,13 26,19 44,19 18,1 35,-3 48,-12l1 0 0 -1 13 -51 -3 2c-14,9 -28,14 -40,14 -17,0 -26,-11 -26,-30l0 -142 56 0 0 -50 -56 0 0 -83 -53 28 0 55 -46 0 0 0z"/>
   <polygon class="fil1" points="714,327 659,327 659,594 714,594 "/>
   <path id="SVGCleanerId_1" class="fil1" d="M314 369l-1 0c-26,-31 -57,-46 -95,-46 -39,0 -72,12 -98,36 -27,26 -41,60 -41,102 0,43 14,77 41,102 26,24 59,36 98,36 38,0 70,-15 95,-45l1 -1 -31 -37 -1 1c-20,20 -42,30 -65,30 -24,0 -44,-8 -60,-24 -16,-16 -23,-37 -23,-62 0,-25 7,-45 23,-62 16,-15 36,-24 60,-24 23,0 45,11 65,31l1 1 31 -38 0 0z"/>
   <path class="fil2" d="M372 284c21,-22 45,-39 73,-51 26,-11 54,-17 83,-17 29,0 57,6 84,17 27,12 51,29 72,51l1 0 63 0 -3 -3c-25,-35 -57,-63 -95,-83 -39,-20 -79,-30 -122,-30 -42,0 -83,10 -122,30 -38,20 -70,48 -95,83l-3 3 63 0 1 0 0 0z"/>
   <polygon class="fil1" points="400,327 345,327 345,594 400,594 "/>
   <path id="SVGCleanerId_0_1_" class="fil1" d="M450 328l0 50 45 0 0 150c0,21 6,38 17,51 11,13 26,19 44,19 18,1 35,-3 48,-12l1 0 0 -1 13 -51 -3 2c-14,9 -28,14 -40,14 -17,0 -26,-11 -26,-30l0 -142 56 0 0 -50 -56 0 0 -83 -53 28 0 55 -46 0 0 0z"/>
   <polygon class="fil1" points="714,327 659,327 659,594 714,594 "/>
   <path id="SVGCleanerId_1_1_" class="fil1" d="M314 369l-1 0c-26,-31 -57,-46 -95,-46 -39,0 -72,12 -98,36 -27,26 -41,60 -41,102 0,43 14,77 41,102 26,24 59,36 98,36 38,0 70,-15 95,-45l1 -1 -31 -37 -1 1c-20,20 -42,30 -65,30 -24,0 -44,-8 -60,-24 -16,-16 -23,-37 -23,-62 0,-25 7,-45 23,-62 16,-15 36,-24 60,-24 23,0 45,11 65,31l1 1 31 -38 0 0z"/>
   <path class="fil3" d="M372 284c21,-22 45,-39 73,-51 26,-11 54,-17 83,-17 29,0 57,6 84,17 27,12 51,29 72,51l1 0 63 0 -3 -3c-25,-35 -57,-63 -95,-83 -39,-20 -79,-30 -122,-30 -42,0 -83,10 -122,30 -38,20 -70,48 -95,83l-3 3 63 0 1 0 0 0z"/>
  </g>
 </g>
</svg>
