<?xml version="1.0" encoding="UTF-8"?>
<!DOCTYPE svg PUBLIC "-//W3C//DTD SVG 1.1//EN" "http://www.w3.org/Graphics/SVG/1.1/DTD/svg11.dtd">
<!-- Creator: CorelDRAW X8 -->
<svg xmlns="http://www.w3.org/2000/svg" xml:space="preserve" width="8.4666mm" height="8.4666mm" version="1.1" style="shape-rendering:geometricPrecision; text-rendering:geometricPrecision; image-rendering:optimizeQuality; fill-rule:evenodd; clip-rule:evenodd"
viewBox="0 0 847 847"
 xmlns:xlink="http://www.w3.org/1999/xlink">
 <defs>
  <style type="text/css">
   <![CDATA[
    .fil0 {fill:#00529E}
    .fil1 {fill:white}
   ]]>
  </style>
 </defs>
 <g id="Camada_x0020_1">
  <metadata id="CorelCorpID_0Corel-Layer"/>
  <g id="_2105025823776">
   <circle class="fil0" cx="423" cy="423" r="423"/>
   <path class="fil1" d="M453 418c68,0 129,-55 129,-122 0,-74 -61,-124 -129,-124l-57 0c-69,0 -125,50 -125,124 0,67 56,122 125,122l57 0z"/>
   <g>
    <path class="fil0" d="M421 361l0 -133c27,10 46,36 46,66 0,31 -19,57 -46,67l0 0zm-97 -67c1,-30 19,-56 46,-66l0 133c-27,-10 -45,-36 -46,-67l0 0zm72 -112c-62,0 -113,50 -113,112 0,63 51,113 113,113 62,0 112,-50 112,-113 0,-62 -50,-112 -112,-112z"/>
   </g>
   <path class="fil1" d="M146 502c0,10 7,11 13,11 28,0 38,-21 38,-41 0,-24 -16,-42 -41,-42 -6,0 -8,1 -10,1l0 71 0 0zm-13 -61c0,-12 -6,-11 -12,-11l0 -4c5,0 10,0 15,0 6,0 13,0 23,0 34,0 52,23 52,46 0,13 -8,45 -54,45 -6,0 -12,0 -19,0 -5,0 -11,0 -17,0l0 -3c8,-1 12,-1 12,-10l0 -63z"/>
   <g>
    <path class="fil1" d="M229 438c-3,0 -6,-4 -6,-7 0,-3 3,-6 6,-6 4,0 7,3 7,6 0,4 -3,7 -7,7l0 0zm-14 76l3 0c3,0 6,0 6,-5l0 -35c0,-6 -2,-6 -7,-9l0 -2c6,-2 14,-4 14,-5 1,0 2,0 3,0 0,0 1,0 1,1l0 50c0,5 2,5 6,5l2 0 0 3c-4,0 -9,0 -13,0 -5,0 -10,0 -15,0l0 -3 0 0 0 0z"/>
   </g>
   <path class="fil1" d="M256 475c0,-5 -2,-6 -8,-9l0 -2c6,-2 11,-4 17,-6 1,0 1,0 1,1l0 8c7,-5 14,-9 22,-9 12,0 15,8 15,18l0 33c0,5 3,5 7,5l2 0 0 3c-4,0 -9,0 -13,0 -5,0 -10,0 -15,0l0 -3 3 0c3,0 6,0 6,-5l0 -33c0,-8 -5,-11 -12,-11 -4,0 -11,3 -15,6l0 38c0,5 3,5 7,5l2 0 0 3c-5,0 -9,0 -14,0 -5,0 -9,0 -14,0l0 -3 2 0c4,0 7,0 7,-5l0 -34 0 0z"/>
   <path class="fil1" d="M345 477c3,0 4,-2 4,-3 0,-7 -4,-12 -11,-12 -8,0 -14,6 -15,15l22 0zm-23 4c0,1 0,3 0,8 1,12 9,22 19,22 7,0 13,-4 18,-9l2 2c-6,8 -14,15 -24,15 -21,0 -25,-20 -25,-28 0,-26 17,-33 26,-33 11,0 22,6 22,20 0,1 0,2 0,2l-1 1 -37 0 0 0z"/>
   <path class="fil1" d="M363 514l4 0c3,0 6,0 6,-5l0 -36c0,-4 -5,-5 -7,-6l0 -2c9,-4 15,-7 16,-7 1,0 1,0 1,1l0 12 0 0c4,-5 9,-13 17,-13 3,0 7,2 7,6 0,4 -2,7 -6,7 -4,0 -4,-3 -8,-3 -3,0 -10,3 -10,11l0 30c0,5 3,5 6,5l8 0 0 3c-7,0 -13,0 -19,0 -5,0 -10,0 -15,0l0 -3 0 0z"/>
   <path class="fil1" d="M413 499c2,9 7,16 16,16 8,0 11,-5 11,-9 0,-16 -28,-11 -28,-32 0,-7 6,-16 20,-16 4,0 10,1 15,3l1 14 -3 0c-2,-9 -6,-13 -15,-13 -5,0 -10,3 -10,8 0,16 30,11 30,31 0,9 -6,18 -22,18 -5,0 -11,-2 -16,-4l-1 -15 2 -1z"/>
   <path class="fil1" d="M568 450l-3 0c-3,-15 -14,-22 -28,-22 -15,0 -37,10 -37,42 0,26 19,45 39,45 13,0 23,-9 26,-23l3 1 -3 19c-5,3 -20,7 -29,7 -30,0 -49,-20 -49,-49 0,-27 23,-46 49,-46 10,0 21,4 31,7l1 19z"/>
   <path class="fil1" d="M573 514l2 0c4,0 6,0 6,-5l0 -72c0,-9 -2,-9 -7,-10l0 -2c6,-2 11,-4 14,-6 1,-1 2,-1 3,-1 0,0 1,0 1,1l0 90c0,5 3,5 6,5l2 0 0 3c-4,0 -9,0 -13,0 -5,0 -10,0 -14,0l0 -3 0 0z"/>
   <path class="fil1" d="M656 510c0,2 1,2 4,2 1,0 3,0 5,0l0 3c-6,0 -16,3 -19,4l-1 0 0 -11c-7,6 -13,11 -23,11 -7,0 -14,-5 -14,-16l0 -33c0,-3 0,-6 -8,-7l0 -3c5,0 15,0 17,0 2,0 2,0 2,3l0 34c0,4 0,15 11,15 4,0 10,-3 16,-8l0 -35c0,-3 -7,-4 -11,-5l0 -3c11,0 19,-1 20,-1 1,0 1,0 1,2l0 48 0 0 0 0z"/>
   <path class="fil1" d="M682 502c0,5 5,14 13,14 14,0 20,-14 20,-26 0,-14 -11,-25 -21,-25 -5,0 -9,3 -12,6l0 31zm0 -35c5,-4 12,-9 19,-9 15,0 24,13 24,27 0,17 -12,34 -31,34 -9,0 -14,-3 -18,-5l-4 3 -2 -1c1,-8 2,-15 2,-23l0 -56c0,-9 -2,-9 -7,-10l0 -2c5,-2 10,-4 13,-6 1,-1 2,-1 3,-1 1,0 1,0 1,1l0 48z"/>
   <path class="fil1" d="M121 593l1 0c2,0 5,-1 5,-4l0 -37c0,-4 -3,-5 -5,-5l-1 0 0 -2c3,0 7,1 10,1 4,0 8,-1 11,-1l0 2 -1 0c-2,0 -5,1 -5,5l0 37c0,3 3,4 5,4l1 0 0 2c-3,0 -7,-1 -11,-1 -3,0 -7,1 -10,1l0 -2 0 0z"/>
   <g>
    <path class="fil1" d="M142 594l0 -1 -1 0c-2,0 -5,-1 -5,-4l0 -37c0,-4 3,-5 5,-5l1 0 0 -1c-3,0 -7,0 -11,0 -3,0 -7,0 -10,0l0 1 1 0c2,0 5,1 5,5l0 37c0,3 -3,4 -5,4l-1 0 0 1c3,0 7,0 10,0 4,0 8,0 11,0l0 0zm0 1c-3,0 -7,0 -11,0 -3,0 -7,0 -10,0l0 0 0 0 0 -2 0 -1 0 0 1 0c2,0 5,0 5,-3l0 -37c0,-4 -3,-4 -5,-4l-1 0 0 -1 0 -2 0 0c3,0 7,0 10,0 4,0 8,0 11,0l1 0 0 0 0 3 -1 0 -1 0c-2,0 -4,0 -5,4l0 37c1,3 3,3 5,3l2 0 0 1 0 2 -1 0c0,0 0,0 0,0z"/>
   </g>
   <path class="fil1" d="M191 581l0 0 0 -27c0,-6 -4,-7 -6,-7l-2 0 0 -2c4,0 7,1 10,1 3,0 6,-1 9,-1l0 2 -1 0c-3,0 -6,1 -6,9l0 33c0,2 0,5 0,7l-3 0 -36 -41 0 29c0,6 1,9 7,9l1 0 0 2c-3,0 -6,-1 -9,-1 -3,0 -7,1 -10,1l0 -2 1 0c5,0 6,-4 6,-9l0 -30c0,-4 -3,-7 -6,-7l-1 0 0 -2c3,0 6,1 8,1 2,0 4,-1 7,-1l31 36z"/>
   <path class="fil1" d="M191 581l0 0 0 0 0 0zm0 0l0 0 0 0zm1 14l3 0c-1,-2 -1,-4 -1,-6l0 -33c0,-8 4,-9 7,-9l1 0 0 -1c-3,0 -6,0 -9,0 -3,0 -6,0 -9,0l0 1 1 0c2,0 6,1 6,7l0 27 0 0 0 0 -31 -35c-3,0 -5,0 -7,0 -2,0 -5,0 -8,0l0 1 1 0c3,0 7,3 7,7l0 30c0,5 -2,9 -7,9l-1 0 0 1c3,0 7,0 10,0 3,0 6,0 9,0l0 -1 -1 0c-6,0 -7,-3 -7,-9l0 -30 36 41zm3 1l-3 0 -36 -40 0 28c0,6 1,8 7,8l1 0 0 1 0 2 0 0c-3,0 -6,0 -9,0 -3,0 -7,0 -10,0l0 0 0 0 0 -3 0 0 1 0c5,0 6,-3 6,-8l0 -30c0,-4 -3,-6 -6,-6l-1 0 0 -1 0 -2 0 0c3,0 6,0 8,0 2,0 4,0 7,0l31 35 0 -26c0,-6 -4,-6 -6,-6l-2 0 0 -1 0 -2 0 0c4,0 7,0 10,0 3,0 6,0 9,0l0 0 0 0 0 3 0 0 -1 0c-3,0 -6,0 -6,8l0 33c0,2 0,5 0,7l1 0 -1 0z"/>
   <path class="fil1" d="M213 549c-6,0 -6,1 -7,6l-2 0c0,-2 1,-4 1,-6 0,-2 0,-4 0,-6l2 0c1,2 2,2 4,2l37 0c2,0 3,0 4,-2l1 0c0,2 0,4 -1,6 0,2 0,4 0,6l-2 1c0,-3 0,-7 -5,-7l-12 0 0 38c0,5 3,6 6,6l2 0 0 2c-3,0 -8,-1 -12,-1 -4,0 -9,1 -12,1l0 -2 1 0c4,0 6,-1 6,-6l0 -38 -11 0 0 0z"/>
   <path class="fil1" d="M241 595c-3,0 -8,0 -12,0 -4,0 -9,0 -12,0l0 0 0 0 0 -3 0 0 1 0c4,0 6,0 6,-5l0 -38 -11 0 0 0 0 0 12 0 0 38c0,5 -3,6 -7,6l-1 0 0 1c3,0 8,0 12,0 4,0 8,0 11,0l0 -1 -1 0c-3,0 -6,-1 -6,-6l0 -38 12 0c5,0 5,4 5,6l2 0c0,-2 0,-4 0,-6 0,-2 1,-3 1,-5l-1 0c-1,2 -3,2 -4,2l-37 0 0 0c-2,0 -4,0 -4,-2l-1 0c0,2 -1,3 -1,5 0,2 0,4 -1,6l2 0c1,-5 1,-6 7,-6l0 0 0 0c-6,0 -5,1 -7,6l0 1 0 0 -2 0 0 -1c0,-2 0,-4 1,-6 0,-2 0,-4 0,-6l0 0 0 0 2 0 0 0c1,2 2,2 4,2l0 0 37 0c2,0 3,0 3,-2l0 0 1 0 2 0 0 0c-1,2 -1,4 -1,6 0,2 0,4 0,6l0 0 -1 0 -2 1 0 0c0,-3 -1,-7 -5,-7l-11 0 0 38c0,5 2,5 5,5l2 0 0 1 0 2 0 0 0 0z"/>
   <path class="fil1" d="M255 593l1 0c3,0 6,-1 6,-4l0 -37c0,-4 -3,-5 -6,-5l-1 0 0 -2c5,0 12,1 18,1 6,0 13,-1 18,-1 0,3 0,8 0,11l-2 1c0,-5 -1,-9 -8,-9l-10 0 0 19 8 0c4,0 5,-2 6,-6l2 0c0,3 0,5 0,8 0,3 0,5 0,8l-2 1c-1,-5 -1,-7 -6,-7l-8 0 0 16c0,5 4,5 8,5 9,0 13,-1 15,-9l2 0c-1,4 -2,8 -3,12 -4,0 -12,-1 -19,-1 -6,0 -14,1 -19,1l0 -2 0 0z"/>
   <g>
    <path class="fil1" d="M293 594c1,-3 2,-7 2,-10l-1 -1c-2,8 -6,9 -15,9 -4,0 -9,0 -9,-5l0 -17 9 0c5,0 6,3 6,7l2 0c-1,-3 -1,-5 -1,-8 0,-3 0,-5 1,-8l-2 0c0,4 -2,6 -6,6l-9 0 0 -19 11 0c7,0 8,4 9,8l1 0c0,-2 0,-5 0,-7 0,-1 0,-2 0,-3 -5,0 -12,0 -18,0 -6,0 -13,0 -17,0l0 1 0 0c3,0 6,1 6,5l0 37c0,3 -3,4 -6,4l0 0 0 1c4,0 12,0 18,0 7,0 15,0 19,0l0 0zm0 1c-4,0 -12,0 -19,0 -6,0 -14,0 -19,0l0 0 0 0 0 -2 0 -1 0 0 1 0c3,0 5,0 5,-3l0 -37c0,-4 -2,-4 -5,-4l-1 0 0 -1 0 -2 0 0c5,0 12,0 18,0 6,0 13,0 18,0l1 0 0 0c-1,1 -1,3 -1,4 0,2 1,5 1,7l0 0 -1 0 -2 1 0 0c0,-5 -1,-8 -8,-8l-10 0 0 18 8 0c4,0 5,-2 5,-6l1 -1 0 0 2 0 0 1c0,3 0,5 0,8 0,3 0,5 0,8l0 0 0 0 -2 1 -1 0c0,-5 0,-7 -5,-7l-8 0 0 16c0,4 4,4 8,4 9,0 12,0 14,-8l1 0 0 0 2 0 0 1c-1,3 -2,7 -2,11l0 0 -1 0 0 0z"/>
   </g>
   <path class="fil1" d="M314 569l4 0c7,0 11,-2 11,-11 0,-6 -4,-10 -11,-10 -2,0 -3,0 -4,0l0 21 0 0zm-9 -16c0,-5 -3,-6 -5,-6l-1 0 0 -2c2,0 7,1 11,1 4,0 8,-1 11,-1 9,0 17,3 17,13 0,6 -4,10 -10,12l12 18c2,3 4,4 7,5l0 2c-2,0 -4,-1 -7,-1 -2,0 -4,1 -6,1 -6,-7 -10,-15 -15,-23l-5 0 0 15c0,5 3,6 6,6l1 0 0 2c-4,0 -8,-1 -12,-1 -3,0 -6,1 -10,1l0 -2 1 0c3,0 5,-2 5,-4l0 -36 0 0z"/>
   <path class="fil1" d="M318 569c7,0 10,-3 10,-11 0,-6 -3,-10 -10,-10 -2,0 -2,0 -3,0l0 21 3 0 0 0zm-4 1l0 0 0 -22 0 0c1,0 2,0 4,0 7,0 11,4 11,10 0,9 -4,12 -11,12l-4 0 0 0zm0 2l5 0 0 0c5,8 10,15 15,22 2,0 4,0 6,0 3,0 5,0 7,0l0 -1c-3,-1 -5,-2 -7,-4l-12 -19 0 0c6,-2 10,-6 10,-12 0,-10 -8,-12 -17,-12 -3,0 -7,0 -11,0 -4,0 -8,0 -11,0l0 1 1 0c2,0 6,1 6,6l0 36c0,3 -3,4 -6,4l-1 0 0 1c4,0 7,0 10,0 4,0 8,0 12,0l0 -1 -1 0c-3,0 -6,0 -6,-6l0 -15 0 0 0 0zm33 23c-2,0 -4,0 -7,0 -2,0 -4,0 -6,0 -6,-7 -11,-15 -15,-23l-4 0 0 15c0,5 2,5 5,5l2 0 0 1 0 2 -1 0c-4,0 -8,0 -12,0 -3,0 -6,0 -10,0l0 0 0 0 0 -3 0 0 1 0c3,0 5,-1 5,-3l0 -36c0,-5 -3,-5 -5,-5l-1 0 0 -1 0 -2 0 0c2,0 7,0 11,0 4,0 8,0 11,0 9,0 17,3 18,13 0,6 -5,10 -10,12l12 18c2,3 3,4 6,4l1 0 0 1 0 2 -1 0z"/>
   <path class="fil1" d="M395 581l1 0 0 -27c0,-6 -5,-7 -7,-7l-1 0 0 -2c3,0 6,1 10,1 3,0 5,-1 8,-1l0 2 -1 0c-3,0 -6,1 -6,9l0 33c0,2 0,5 0,7l-2 0 -37 -41 0 29c0,6 2,9 7,9l1 0 0 2c-3,0 -6,-1 -9,-1 -3,0 -6,1 -10,1l0 -2 1 0c5,0 7,-4 7,-9l0 -30c0,-4 -3,-7 -7,-7l-1 0 0 -2c3,0 6,1 9,1 2,0 4,-1 6,-1l31 36z"/>
   <path class="fil1" d="M395 581l0 0 0 0 0 0zm0 0l1 0 -1 0zm2 14l2 0c0,-2 0,-4 0,-6l0 -33c0,-8 3,-9 6,-9l1 0 0 -1c-3,0 -5,0 -8,0 -4,0 -7,0 -10,0l0 1 1 0c3,0 7,1 7,7l0 27 0 0 -1 0 -31 -35c-2,0 -4,0 -6,0 -3,0 -6,0 -8,0l0 1 0 0c4,0 7,3 7,7l0 30c0,5 -2,9 -7,9l0 0 0 1c3,0 6,0 9,0 3,0 6,0 9,0l0 -1 -1 0c-6,0 -7,-2 -7,-9l0 -30 37 41zm2 1l-2 0 -36 -40 0 28c0,6 1,8 6,8l1 0 0 1 0 2 0 0c-3,0 -6,0 -9,0 -3,0 -6,0 -10,0l0 0 0 0 0 -3 0 0 1 0c5,0 6,-3 6,-8l0 -30c0,-4 -3,-6 -6,-6l-1 0 0 -1 0 -2 0 0c3,0 6,0 9,0 2,0 4,0 6,0l31 35 0 -26c0,-5 -4,-6 -6,-6l-2 0 0 -1 0 -2 1 0c3,0 6,0 10,0 3,0 5,0 8,0l1 0 0 0 0 3 -1 0 -1 0c-3,0 -6,0 -6,8l0 33c0,2 0,5 1,7l0 0 -1 0 0 0 0 0z"/>
   <path class="fil1" d="M428 553l0 0 -7 20 14 0 -7 -20zm-10 32c-1,2 -2,4 -2,5 0,2 3,3 6,3l0 0 0 2c-3,0 -5,-1 -8,-1 -3,0 -5,1 -8,1l0 -2 1 0c2,0 5,-2 6,-5l11 -32c1,-3 2,-7 3,-9 2,-1 5,-2 6,-3 0,0 0,0 1,0 0,0 0,0 0,0 0,0 1,1 1,2l13 37c1,2 1,5 2,7 1,2 3,3 5,3l1 0 0 2c-4,0 -7,-1 -10,-1 -4,0 -7,1 -11,1l0 -2 1 0c2,0 4,-1 4,-2 0,-1 0,-3 -1,-6l-3 -8 -16 0 -2 8z"/>
   <path class="fil1" d="M428 553l0 0 0 0zm-6 20l12 0 -6 -19 -6 19zm-1 1l7 -21 0 0 0 0 0 0 0 0 0 0 0 0 0 0 7 21 -14 0zm14 20c4,0 7,0 11,0 3,0 6,0 9,0l0 -1 0 0c-2,0 -4,-1 -5,-3 -1,-2 -2,-5 -2,-7l-14 -37c0,-1 0,-2 0,-2 0,0 0,0 0,0l0 0c-1,0 -1,0 -1,0 -1,1 -4,2 -6,3 -1,2 -2,6 -3,9l-11 32c-1,3 -4,5 -6,5l-1 0 0 1c3,0 5,0 8,0 2,0 5,0 8,0l0 -1 0 0c-3,0 -6,0 -6,-3 0,-1 1,-3 1,-5l1 0 -1 0 3 -8 16 0 3 8c1,3 2,5 2,6 -1,2 -4,2 -5,2l-1 0 0 1 0 0zm20 1c-3,0 -6,0 -9,0 -4,0 -7,0 -11,0l0 0 0 0 0 -3 0 0 1 0c2,0 4,0 4,-1 0,-1 -1,-3 -1,-5l-3 -8 -16 0 -2 7c-1,2 -1,4 -1,5 0,2 2,2 5,2l1 0 0 1 0 2 -1 0c-3,0 -5,0 -8,0 -3,0 -5,0 -8,0l0 0 0 0 0 -3 0 0 1 0c2,0 4,-1 5,-4l12 -33c1,-2 2,-6 3,-9 2,0 5,-2 6,-3 0,0 0,0 1,0 0,0 0,0 0,1 1,0 1,1 1,1l13 37c1,3 2,6 3,8 1,2 2,2 4,2l1 0 0 1 0 2 -1 0z"/>
   <path class="fil1" d="M459 549c-6,0 -6,1 -7,6l-2 0c0,-2 1,-4 1,-6 0,-2 0,-4 0,-6l2 0c0,2 2,2 4,2l37 0c2,0 3,0 3,-2l2 0c0,2 0,4 -1,6 0,2 0,4 0,6l-2 1c0,-3 0,-7 -5,-7l-12 0 0 38c0,5 3,6 6,6l2 0 0 2c-3,0 -8,-1 -12,-1 -4,0 -9,1 -12,1l0 -2 1 0c4,0 6,-1 6,-6l0 -38 -11 0 0 0z"/>
   <path class="fil1" d="M486 595c-2,0 -7,0 -11,0 -4,0 -9,0 -12,0l0 0 0 0 0 -3 0 0 1 0c4,0 6,0 6,-5l0 -38 -11 0 0 0 0 0 12 0 0 38c0,5 -3,6 -7,6l-1 0 0 1c3,0 8,0 12,0 4,0 8,0 11,0l0 -1 -1 0c-3,0 -6,-1 -6,-6l0 -38 12 0c5,0 5,4 5,6l2 0c0,-2 0,-4 0,-6 0,-2 1,-3 1,-5l-1 0c-1,2 -3,2 -4,2l-37 0 0 0c-2,0 -4,0 -4,-2l-1 0c-1,2 -1,3 -1,5 0,2 0,4 -1,6l2 0c1,-5 1,-7 7,-6l0 0 0 0c-6,0 -6,1 -7,6l0 1 0 0 -2 0 0 -1c0,-2 0,-4 0,-6 1,-2 1,-4 1,-6l0 0 0 0 2 0 0 0c1,2 2,2 4,2 0,0 0,0 0,0l37 0c2,0 3,0 3,-2l0 0 1 0 2 0 -1 0c0,2 0,4 0,6 0,2 0,4 0,6l0 0 -1 0 -2 1 0 0c0,-3 -1,-7 -5,-7l-11 0 0 38c0,5 2,5 5,5l2 0 0 1 0 2 0 0 -1 0 0 0z"/>
   <path class="fil1" d="M502 593l1 0c2,0 5,-1 5,-4l0 -37c0,-4 -3,-5 -5,-5l-1 0 0 -2c3,0 7,1 10,1 4,0 8,-1 11,-1l0 2 -1 0c-2,0 -5,1 -5,5l0 37c0,3 3,4 5,4l1 0 0 2c-3,0 -7,-1 -11,-1 -3,0 -7,1 -10,1l0 -2 0 0z"/>
   <g>
    <path class="fil1" d="M523 594l0 -1 -1 0c-2,0 -5,-1 -5,-4l0 -37c0,-4 3,-5 5,-5l1 0 0 -1c-3,0 -7,0 -11,0 -3,0 -7,0 -10,0l0 1 1 0c2,0 5,1 5,5l0 37c0,3 -3,4 -5,4l-1 0 0 1c3,0 7,0 10,0 4,0 8,0 11,0l0 0zm0 1c-3,0 -7,0 -11,0 -3,0 -7,0 -10,0l-1 0 0 0 0 -2 0 -1 1 0 1 0c2,0 5,0 5,-3l0 -37c0,-4 -3,-4 -5,-4l-2 0 0 -1 0 -2 1 0c3,0 7,0 10,0 4,0 8,0 11,0l1 0 0 0 0 3 -1 0 -1 0c-2,0 -5,0 -5,4l0 37c0,3 3,3 5,3l2 0 0 1 0 2 -1 0z"/>
   </g>
   <g>
    <path class="fil1" d="M553 593c13,0 16,-12 16,-23 0,-10 -6,-23 -18,-23 -12,0 -16,11 -16,21 0,13 6,25 18,25l0 0zm-1 -49c15,0 27,10 27,25 0,16 -12,27 -27,27 -15,0 -27,-10 -27,-26 0,-14 12,-26 27,-26z"/>
   </g>
   <g>
    <path class="fil1" d="M535 568c0,-10 4,-21 16,-21 12,0 18,13 18,23 0,11 -2,23 -16,23l0 0 0 -1c13,0 15,-11 15,-22 0,-10 -5,-22 -17,-22 -12,0 -15,10 -15,20 0,13 5,24 17,24l0 1 0 0c-12,0 -18,-12 -18,-25l0 0zm-10 2c0,-14 12,-26 27,-26l0 0 0 1c-15,0 -26,11 -26,25 0,15 11,25 26,25 15,0 26,-10 26,-26 0,-15 -11,-24 -26,-24l0 -1 0 0c15,0 27,9 27,25 0,16 -12,27 -27,27 -15,0 -27,-10 -27,-26z"/>
   </g>
   <path class="fil1" d="M626 581l1 0 0 -27c0,-6 -5,-7 -7,-7l-1 0 0 -2c3,0 6,1 10,1 3,0 6,-1 8,-1l0 2 -1 0c-3,0 -6,1 -6,9l0 33c0,2 0,5 0,7l-2 0 -37 -41 0 29c0,6 2,9 7,9l1 0 0 2c-3,0 -6,-1 -9,-1 -3,0 -6,1 -10,1l0 -2 1 0c5,0 7,-4 7,-9l0 -30c0,-4 -3,-7 -7,-7l-1 0 0 -2c3,0 6,1 9,1 2,0 4,-1 6,-1l31 36z"/>
   <path class="fil1" d="M626 581l0 0 0 0 0 0zm0 0l1 0 -1 0zm2 14l2 0c0,-2 0,-4 0,-6l0 -33c0,-8 3,-9 6,-9l1 0 0 -1c-3,0 -5,0 -8,0 -4,0 -7,0 -10,0l0 1 1 0c3,0 7,1 7,7l0 27 0 0 -1 0 -31 -35c-2,0 -4,0 -6,0 -3,0 -6,0 -8,0l0 1 0 0c4,0 7,3 7,7l0 30c0,5 -1,9 -7,9l0 0 0 1c3,0 6,0 9,0 3,0 6,0 9,0l0 -1 -1 0c-6,0 -7,-2 -7,-9l0 -30 37 41zm2 1l-2 0 -36 -40 0 28c0,6 1,8 6,8l2 0 0 1 0 2 -1 0c-3,0 -6,0 -9,0 -3,0 -6,0 -10,0l0 0 0 0 0 -3 0 0 1 0c5,0 6,-3 6,-8l0 -30c0,-4 -3,-6 -6,-6l-1 0 0 -1 0 -2 0 0c3,0 6,0 9,0 2,0 4,0 6,0l31 35 0 -26c0,-6 -4,-6 -6,-6l-2 0 0 -1 0 -2 1 0c3,0 6,0 10,0 3,0 5,0 8,0l1 0 0 0 0 3 -1 0 -1 0c-3,0 -6,0 -6,8l0 33c0,2 0,5 1,7l0 0 -1 0 0 0 0 0 0 0z"/>
   <path class="fil1" d="M659 553l0 0 -7 20 14 0 -7 -20zm-10 32c-1,2 -2,4 -2,5 0,2 3,3 6,3l0 0 0 2c-3,0 -5,-1 -8,-1 -3,0 -5,1 -8,1l0 -2 1 0c2,0 5,-2 6,-5l11 -32c1,-3 2,-7 3,-9 2,-1 5,-2 6,-3 0,0 0,0 1,0 0,0 0,0 0,0 0,0 1,1 1,2l13 37c1,2 1,5 2,7 1,2 3,3 5,3l1 0 0 2c-4,0 -7,-1 -10,-1 -4,0 -7,1 -11,1l0 -2 1 0c2,0 4,-1 4,-2 0,-1 0,-3 -1,-6l-3 -8 -16 0 -2 8z"/>
   <path class="fil1" d="M659 553l0 0 0 0zm-6 20l12 0 -6 -19 -6 19zm-1 1l7 -21 0 0 0 0 0 0 0 0 0 0 0 0 0 0 7 21 -14 0zm14 20c4,0 7,0 11,0 3,0 6,0 9,0l0 -1 0 0c-2,0 -4,-1 -5,-3 -1,-2 -2,-5 -2,-7l-14 -37c0,-1 0,-2 0,-2 0,0 0,0 0,0l0 0c-1,0 -1,0 -1,0 -1,1 -4,2 -6,3 0,2 -2,6 -3,9l-11 32c-1,3 -4,5 -6,5l-1 0 0 1c3,0 5,0 8,0 2,0 5,0 8,0l0 -1 0 0c-3,0 -6,0 -6,-3 0,-1 1,-3 1,-5l1 0 -1 0 3 -8 16 0 3 8c1,3 2,5 2,6 -1,2 -3,2 -5,2l-1 0 0 1 0 0zm21 1c-4,0 -7,0 -10,0 -4,0 -7,0 -11,0l0 0 0 0 0 -3 0 0 1 0c2,0 4,0 4,-1 0,-1 -1,-3 -1,-5l-3 -8 -16 0 -2 7c-1,2 -1,4 -1,5 0,2 2,2 5,2l1 0 0 1 0 2 -1 0c-3,0 -5,0 -8,0 -3,0 -5,0 -8,0l0 0 0 0 0 -3 0 0 1 0c2,0 4,-1 5,-4l12 -33c1,-2 2,-6 3,-9 2,0 5,-2 6,-3 0,0 0,0 1,0 0,0 0,0 0,1 1,0 1,1 1,1l13 37c1,3 2,6 3,8 1,2 2,2 4,2l1 0 0 1 0 2 0 0z"/>
   <path class="fil1" d="M704 588c0,3 2,3 5,4 2,0 6,0 9,0 3,-1 5,-2 7,-4 1,-2 1,-4 2,-5l2 0c-1,4 -2,8 -3,12 -6,0 -12,-1 -18,-1 -7,0 -13,1 -19,1l0 -2 1 0c3,0 5,-1 5,-5l0 -36c0,-4 -2,-5 -5,-5l-1 0 0 -2c4,0 7,1 11,1 4,0 7,-1 11,-1l0 2 -2 0c-3,0 -5,1 -5,4l0 37 0 0 0 0z"/>
   <g>
    <path class="fil1" d="M726 594c1,-3 2,-7 3,-11l-2 0c0,2 -1,3 -2,5 -1,2 -4,4 -7,4 -2,0 -4,0 -5,0 -2,0 -3,0 -4,0 -3,0 -5,-1 -5,-4l0 -37c0,-4 3,-4 5,-4l2 0 0 -1c-4,0 -7,0 -11,0 -4,0 -7,0 -11,0l0 1 1 0c2,0 6,1 6,5l0 36c0,4 -3,5 -6,5l-1 0 0 1c6,0 13,0 19,0 6,0 12,0 18,0l0 0zm0 1c-6,0 -12,0 -18,0 -7,0 -13,0 -19,0l0 0 0 0 0 -3 0 0 1 0c3,0 5,0 5,-4l0 -36c0,-4 -2,-4 -5,-4l-1 0 0 -1 0 -2 0 0c4,0 7,0 11,0 4,0 7,0 11,0l0 0 0 0 0 3 0 0 -2 0c-3,0 -4,0 -4,3l0 37c0,2 1,3 4,3 1,1 2,1 4,1 1,0 3,0 5,-1 3,0 5,-2 6,-3 2,-2 2,-4 3,-5l0 -1 0 0 2 0 0 1c-1,4 -2,8 -2,12l0 0 -1 0 0 0 0 0z"/>
   </g>
   <g>
    <path class="fil1" d="M727 551l1 0c1,0 1,-1 1,-2 0,-1 0,-2 -1,-2l-1 0 0 4 0 0zm-3 4l0 -1c1,0 1,0 1,0l0 -6c0,-1 0,-1 -1,-1l0 0 4 0c2,0 3,0 3,2 0,1 -1,2 -2,2l1 2c1,1 1,1 2,1l0 1 -2 0c0,0 -1,-2 -2,-4l-1 0 0 3c0,0 0,0 1,0l0 1 -4 0 0 0zm4 2c3,0 6,-3 6,-6 0,-3 -3,-6 -6,-6 -3,0 -6,3 -6,6 0,3 3,6 6,6l0 0zm0 -14c4,0 8,4 8,8 0,4 -4,7 -8,7 -4,0 -7,-3 -7,-7 0,-4 3,-8 7,-8z"/>
   </g>
  </g>
 </g>
</svg>
