<?xml version="1.0" encoding="UTF-8"?>
<!DOCTYPE svg PUBLIC "-//W3C//DTD SVG 1.1//EN" "http://www.w3.org/Graphics/SVG/1.1/DTD/svg11.dtd">
<!-- Creator: CorelDRAW X8 -->
<svg xmlns="http://www.w3.org/2000/svg" xml:space="preserve" width="8.4805mm" height="8.4806mm" version="1.1" style="shape-rendering:geometricPrecision; text-rendering:geometricPrecision; image-rendering:optimizeQuality; fill-rule:evenodd; clip-rule:evenodd"
viewBox="0 0 855 855"
 xmlns:xlink="http://www.w3.org/1999/xlink">
 <defs>
  <style type="text/css">
   <![CDATA[
    .fil3 {fill:#FEFEFE}
    .fil2 {fill:#FFF212}
    .fil0 {fill:#2A252E}
    .fil4 {fill:#A91C2C}
    .fil1 {fill:#373435;fill-rule:nonzero}
   ]]>
  </style>
 </defs>
 <g id="Camada_x0020_1">
  <metadata id="CorelCorpID_0Corel-Layer"/>
  <g id="_2593452784816">
   <path class="fil0" d="M428 1c235,0 427,191 427,427 0,235 -192,427 -427,427 -236,0 -427,-192 -427,-427 0,-236 191,-427 427,-427z"/>
   <g>
    <path class="fil1" d="M855 428l-1 0 0 0 -1 -22 -1 -22 -3 -21 -4 -21 -5 -21 -5 -20 -7 -20 -8 -19 -8 -19 -10 -19 -10 -17 -11 -18 -12 -16 -12 -16 -14 -16 -14 -15 -15 -14 -15 -13 -16 -13 -17 -12 -17 -11 -18 -10 -19 -10 -18 -8 -20 -8 -20 -6 -20 -6 -20 -5 -21 -4 -22 -2 -21 -2 -22 -1 0 -1 22 1 21 1 22 3 21 4 21 4 20 6 20 7 19 8 19 8 18 10 18 10 18 11 16 12 17 13 15 13 15 14 14 15 14 16 12 16 12 17 11 17 11 18 9 18 9 19 7 20 7 19 6 21 5 20 3 22 3 21 2 22 0 22 0 0zm-427 427l0 -1 0 0 22 -1 21 -1 22 -3 21 -4 20 -5 20 -5 20 -7 20 -8 18 -8 19 -10 18 -10 17 -11 17 -12 16 -12 15 -14 15 -14 14 -15 14 -15 12 -16 12 -17 11 -17 10 -18 10 -19 8 -18 8 -20 7 -20 5 -20 5 -20 4 -21 3 -22 1 -21 1 -22 1 0 0 22 -2 21 -3 22 -3 21 -5 21 -6 20 -7 20 -7 19 -9 19 -9 18 -11 18 -11 18 -12 17 -12 16 -14 15 -14 15 -15 14 -15 14 -17 12 -16 12 -18 11 -18 11 -18 9 -19 9 -19 7 -20 7 -20 6 -21 5 -21 3 -22 3 -21 2 -22 0 0 0zm-428 -427l1 0 0 0 1 22 2 21 2 22 4 21 5 20 6 20 6 20 8 20 8 18 10 19 10 18 11 17 12 17 13 16 13 15 14 15 15 14 16 14 16 12 16 12 18 11 17 10 19 10 19 8 19 8 20 7 20 5 21 5 21 4 21 3 22 1 22 1 0 1 -22 0 -22 -2 -21 -3 -22 -3 -20 -5 -21 -6 -19 -7 -20 -7 -19 -9 -18 -9 -18 -11 -17 -11 -17 -12 -16 -12 -16 -14 -15 -14 -14 -15 -13 -15 -13 -16 -12 -17 -11 -18 -10 -18 -10 -18 -8 -19 -8 -19 -7 -20 -6 -20 -4 -21 -4 -21 -3 -22 -1 -21 -1 -22 0 0zm428 -428l0 1 0 0 -22 1 -22 2 -21 2 -21 4 -21 5 -20 6 -20 6 -19 8 -19 8 -19 10 -17 10 -18 11 -16 12 -16 13 -16 13 -15 14 -14 15 -13 16 -13 16 -12 16 -11 18 -10 17 -10 19 -8 19 -8 19 -6 20 -6 20 -5 21 -4 21 -2 21 -2 22 -1 22 -1 0 1 -22 1 -22 3 -21 4 -22 4 -20 6 -21 7 -19 8 -20 8 -19 10 -18 10 -18 11 -17 12 -17 13 -16 13 -16 14 -15 15 -14 16 -13 16 -13 17 -12 17 -11 18 -10 18 -10 19 -8 20 -8 19 -7 21 -6 20 -4 22 -4 21 -3 22 -1 22 -1 0 0z"/>
   </g>
   <path class="fil2" d="M244 313c62,0 114,43 128,101l-53 23 0 0 -54 23 -130 57c-14,-21 -22,-46 -22,-73 0,-72 59,-131 131,-131zm57 82l-132 56c0,-2 0,-4 0,-7 0,-41 34,-75 75,-75 23,0 43,10 57,26z"/>
   <path class="fil3" d="M336 538c-47,45 -109,49 -164,16l31 -47c31,19 62,16 94,-9l39 40z"/>
   <path class="fil3" d="M389 506l0 -248 47 0 0 241c0,2 0,4 3,6l41 16 -18 47 -48 -20c-18,-8 -25,-19 -25,-42z"/>
   <path class="fil4" d="M702 537c-23,22 -54,35 -89,35 -71,0 -129,-58 -129,-129 0,-21 4,-40 13,-57l49 26c-5,9 -7,20 -7,31 0,41 33,74 74,74 20,0 39,-8 52,-21l37 41z"/>
   <path class="fil2" d="M612 310c72,0 130,59 130,130 0,20 -4,39 -12,55l-49 -26c3,-9 6,-18 6,-29 0,-41 -34,-74 -75,-74 -19,0 -37,7 -50,19l-37 -41c23,-21 54,-34 87,-34z"/>
  </g>
 </g>
</svg>
