<?xml version="1.0" encoding="UTF-8"?>
<!DOCTYPE svg PUBLIC "-//W3C//DTD SVG 1.1//EN" "http://www.w3.org/Graphics/SVG/1.1/DTD/svg11.dtd">
<!-- Creator: CorelDRAW X8 -->
<svg xmlns="http://www.w3.org/2000/svg" xml:space="preserve" width="8.4666mm" height="6.1042mm" version="1.1" style="shape-rendering:geometricPrecision; text-rendering:geometricPrecision; image-rendering:optimizeQuality; fill-rule:evenodd; clip-rule:evenodd"
viewBox="0 0 847 610"
 xmlns:xlink="http://www.w3.org/1999/xlink">
 <defs>
  <style type="text/css">
   <![CDATA[
    .fil2 {fill:#02375E}
    .fil1 {fill:#0F549D}
    .fil0 {fill:#1174CE}
    .fil3 {fill:#146643}
    .fil4 {fill:#1BCC38}
    .fil5 {fill:#329947}
    .fil8 {fill:#720A1E}
    .fil7 {fill:#B41F36}
    .fil6 {fill:#E20E37}
   ]]>
  </style>
 </defs>
 <g id="Camada_x0020_1">
  <metadata id="CorelCorpID_0Corel-Layer"/>
  <g id="_2593452783024">
   <path class="fil0" d="M116 0c-65,0 -116,42 -116,116l0 210c5,26 33,45 63,45 34,0 59,-24 59,-54l0 -107 92 0 0 105c0,59 -75,89 -129,89 -32,0 -62,-9 -84,-26l0 232 148 0c52,0 112,-49 112,-112l0 -498 -145 0 0 0z"/>
   <g>
    <path class="fil1" d="M0 116l0 210c5,26 33,45 63,45 34,0 59,-24 59,-54l0 -107 92 0 0 105c0,59 -75,89 -129,89 -32,0 -62,-9 -84,-26l0 232 148 0c52,0 112,-49 112,-112l0 -498 -261 116zm0 0l0 0 0 0z"/>
   </g>
   <g>
    <path class="fil2" d="M213 210l0 105c0,59 -75,89 -130,89 -31,0 -61,-9 -83,-26l0 232 147 0c52,0 112,-49 112,-112l-46 -288zm0 0l0 0 0 0z"/>
   </g>
   <path class="fil3" d="M632 369l64 0c17,0 32,-15 32,-32 0,-16 -15,-31 -32,-31l-64 0 0 63z"/>
   <path class="fil4" d="M705 0c-67,0 -116,42 -116,115l0 95 172 0c24,0 45,21 45,45 0,25 -21,45 -45,45 27,0 49,20 49,44 0,25 -21,44 -49,44l-174 0 0 222 148 0c52,0 112,-49 112,-112l0 -498 -142 0 0 0z"/>
   <g>
    <path class="fil5" d="M587 116l0 94 172 0c25,0 45,21 45,45 0,25 -20,45 -45,45 28,0 49,20 49,44 0,25 -20,44 -49,44l-172 0 0 222 148 0c52,0 112,-49 112,-112l0 -498 -260 116zm0 0l0 0 0 0z"/>
   </g>
   <g>
    <path class="fil3" d="M804 255c0,25 -20,45 -45,45 28,0 49,20 49,44 0,25 -20,44 -49,44l-172 0 0 222 148 0c52,0 112,-49 112,-112l-43 -243zm0 0l0 0 0 0z"/>
   </g>
   <path class="fil3" d="M726 261c0,-17 -15,-32 -31,-32l-63 0 0 62 64 0c17,0 30,-14 30,-30z"/>
   <path class="fil6" d="M408 0c-67,0 -116,42 -116,115l0 117c17,-14 37,-23 59,-23l156 0 0 33c-37,-8 -73,-13 -90,-13 -39,0 -70,32 -70,70 0,38 31,70 70,70 17,0 53,-3 90,-11l0 30 -156 0c-22,0 -44,-8 -59,-23l0 245 148 0c52,0 112,-49 112,-112l0 -498 -144 0 0 0z"/>
   <g>
    <path class="fil7" d="M292 116l0 118c17,-14 37,-24 59,-24l156 0 0 33c-37,-8 -73,-12 -90,-12 -39,0 -70,31 -70,69 0,39 31,70 70,70 17,0 53,-3 90,-11l0 29 -156 0c-22,0 -44,-8 -59,-23l0 245 148 0c52,0 112,-49 112,-112l0 -498 -260 116zm0 0l0 0 0 0z"/>
   </g>
   <g>
    <path class="fil8" d="M507 210l0 33c-37,-8 -73,-12 -90,-12 -39,0 -70,31 -70,69 0,39 31,70 70,70 17,0 53,-3 90,-11l0 29 -156 0c-22,0 -44,-8 -59,-23l0 245 148 0c52,0 112,-49 112,-112l-45 -288zm0 0l0 0 0 0z"/>
   </g>
  </g>
 </g>
</svg>
