<?xml version="1.0" encoding="UTF-8"?>
<!DOCTYPE svg PUBLIC "-//W3C//DTD SVG 1.1//EN" "http://www.w3.org/Graphics/SVG/1.1/DTD/svg11.dtd">
<!-- Creator: CorelDRAW X8 -->
<svg xmlns="http://www.w3.org/2000/svg" xml:space="preserve" width="8.4668mm" height="5.066mm" version="1.1" style="shape-rendering:geometricPrecision; text-rendering:geometricPrecision; image-rendering:optimizeQuality; fill-rule:evenodd; clip-rule:evenodd"
viewBox="0 0 209 125"
 xmlns:xlink="http://www.w3.org/1999/xlink">
 <defs>
  <style type="text/css">
   <![CDATA[
    .fil3 {fill:#FEFEFE;fill-rule:nonzero}
    .fil1 {fill:#FCA311;fill-rule:nonzero}
    .fil2 {fill:#192168;fill-rule:nonzero}
    .fil0 {fill:#D81E05;fill-rule:nonzero}
   ]]>
  </style>
 </defs>
 <g id="Camada_x0020_1">
  <metadata id="CorelCorpID_0Corel-Layer"/>
  <g id="_2306360310176">
   <path class="fil0" d="M125 63c0,34 -28,62 -62,62 -35,0 -63,-28 -63,-62 0,-35 28,-63 63,-63 34,0 62,28 62,63z"/>
   <path class="fil1" d="M147 0c-17,0 -31,6 -42,16 -3,2 -5,4 -7,7l13 0c2,2 3,4 5,6l-22 0c-2,3 -3,5 -4,7l29 0c1,2 2,4 3,7l-35 0c0,2 -1,4 -2,6l39 0c1,5 1,9 1,14 0,7 -1,13 -3,19l-35 0c1,3 2,5 3,7l29 0c-1,2 -2,5 -3,7l-22 0c1,2 3,4 4,6l13 0c-2,3 -4,5 -6,7 11,10 25,16 42,16 34,0 62,-28 62,-62 0,-35 -28,-63 -62,-63z"/>
   <path class="fil1" d="M201 97c0,-1 1,-2 2,-2 1,0 2,1 2,2 0,2 -1,3 -2,3 -1,0 -2,-1 -2,-3zm2 2c1,0 1,-1 1,-2 0,0 0,-1 -1,-1 -1,0 -2,1 -2,1 0,1 1,2 2,2zm0 -1l-1 0 0 -1 1 0c0,0 0,0 0,0 1,0 1,0 1,0 0,0 0,1 -1,1l1 0 -1 0 0 0 0 0 0 0zm0 -1l0 0c0,0 0,0 0,0 0,0 0,0 0,0 0,0 0,0 0,0 0,0 0,0 0,0l0 0 0 0z"/>
   <path class="fil2" d="M48 69c-1,0 -1,0 -2,0 -3,0 -5,2 -5,4 0,2 1,3 2,3 3,0 5,-3 5,-7zm5 12c-1,0 -6,0 -6,0l0 -3c-1,2 -4,3 -7,3 -3,0 -6,-2 -6,-7 0,-6 4,-10 12,-10 1,0 2,0 3,1 0,-1 0,-2 0,-2 0,-2 -1,-2 -4,-2 -4,0 -6,0 -7,1 0,-1 0,-6 0,-6 4,-1 6,-1 9,-1 5,0 9,2 9,7 0,1 -1,3 -1,5 -1,4 -2,12 -2,14z"/>
   <polygon class="fil2" points="31,81 24,81 28,57 20,81 15,81 14,57 10,81 4,81 9,49 19,49 20,67 26,49 37,49 "/>
   <path class="fil2" d="M155 69c-1,0 -1,0 -1,0 -4,0 -6,2 -6,4 0,2 1,3 2,3 3,0 5,-3 5,-7zm5 12c-1,0 -6,0 -6,0l0 -3c-1,2 -4,3 -7,3 -3,0 -6,-2 -6,-7 0,-6 5,-10 12,-10 1,0 2,0 3,1 0,-1 0,-2 0,-2 0,-2 -1,-2 -4,-2 -4,0 -6,0 -7,1 0,-1 1,-6 1,-6 3,-1 5,-1 8,-1 5,0 9,2 9,7 0,1 -1,3 -1,5 -1,4 -2,12 -2,14z"/>
   <path class="fil2" d="M83 81c-2,0 -3,0 -5,0 -3,0 -5,-2 -5,-5 0,-1 0,-4 1,-7 0,-3 3,-18 3,-18l7 0 -1 4 4 0 -1 6 -4 0c-1,5 -2,11 -2,12 0,2 1,2 2,2 1,0 2,0 2,0l-1 6z"/>
   <path class="fil2" d="M104 80c-2,1 -5,1 -7,1 -8,0 -12,-4 -12,-11 0,-9 5,-15 12,-15 6,0 9,3 9,9 0,2 0,4 0,6l-14 0c0,4 2,6 6,6 2,0 5,-1 7,-2l-1 6zm-4 -15c0,0 1,-5 -3,-5 -2,0 -4,2 -4,5l7 0z"/>
   <path class="fil2" d="M57 63c0,4 2,6 5,8 3,1 3,1 3,2 0,2 -1,3 -4,3 -2,0 -3,-1 -6,-1 0,0 -1,5 -1,6 2,0 3,0 8,0 7,0 10,-2 10,-8 0,-4 -1,-6 -5,-7 -3,-2 -3,-2 -3,-3 0,-2 1,-2 3,-2 2,0 3,0 5,0l1 -6c-2,0 -4,0 -6,0 -7,0 -10,4 -10,8z"/>
   <path class="fil2" d="M137 55c2,0 4,1 6,2l1 -7c-1,0 -4,-3 -7,-3 -5,0 -9,3 -11,6 -4,-1 -6,2 -8,4l-2 1c0,-1 0,-2 0,-3l-6 0c-1,8 -2,16 -3,24l-1 2 7 0c1,-7 2,-12 2,-15l3 -2c0,-1 1,-2 4,-2 -1,2 -1,4 -1,6 0,8 5,13 12,13 2,0 4,0 6,-1l1 -7c-2,1 -4,2 -5,2 -4,0 -7,-3 -7,-8 0,-7 4,-12 9,-12z"/>
   <path class="fil2" d="M194 49l-1 9c-2,-2 -4,-4 -7,-4 -3,0 -6,3 -8,7 -3,-1 -6,-2 -6,-2l0 0c0,-2 0,-3 0,-4l-6 0c-1,8 -2,16 -3,24l-1 2 7 0c1,-6 2,-11 2,-15 3,-2 4,-4 6,-4 -1,3 -2,6 -2,9 0,6 4,10 9,10 2,0 4,0 6,-2l0 2 6 0 5 -32 -7 0zm-8 26c-2,0 -4,-2 -4,-5 0,-5 3,-9 6,-9 2,0 3,2 3,5 0,5 -2,9 -5,9z"/>
   <polygon class="fil3" points="33,79 26,79 30,55 22,79 17,79 16,55 12,79 6,79 11,47 21,47 21,67 28,47 38,47 "/>
   <path class="fil3" d="M50 68c-1,-1 -1,-1 -2,-1 -3,0 -5,2 -5,4 0,2 1,3 2,3 3,0 5,-3 5,-6zm5 11c-1,0 -6,0 -6,0l0 -3c-1,3 -4,4 -7,4 -3,0 -6,-3 -6,-8 0,-6 4,-9 12,-9 1,0 2,0 3,0 0,-1 0,-2 0,-2 0,-2 -1,-2 -4,-2 -4,0 -6,0 -8,1 1,-1 1,-6 1,-6 4,-1 6,-1 9,-1 5,0 8,2 8,7 0,2 0,3 0,5 -1,4 -2,12 -2,14z"/>
   <path class="fil3" d="M146 48l-1 7c-3,-1 -4,-2 -6,-2 -5,0 -9,5 -9,12 0,5 3,8 7,8 1,0 3,-1 5,-2l-1 8c-2,0 -4,1 -6,1 -7,0 -12,-6 -12,-14 0,-12 7,-19 16,-19 3,0 6,1 7,1z"/>
   <path class="fil3" d="M157 68c-1,-1 -1,-1 -2,-1 -3,0 -5,2 -5,4 0,2 1,3 2,3 3,0 5,-3 5,-6zm5 11c-1,0 -6,0 -6,0l0 -3c-1,3 -4,4 -7,4 -3,0 -6,-3 -6,-8 0,-6 4,-9 12,-9 1,0 2,0 3,0 0,-1 0,-2 0,-2 0,-2 -1,-2 -4,-2 -4,0 -6,0 -7,1 0,-1 0,-6 0,-6 4,-1 6,-1 9,-1 5,0 9,2 9,7 0,2 -1,3 -1,5 -1,4 -2,12 -2,14z"/>
   <path class="fil3" d="M85 79c-2,0 -3,1 -5,1 -3,0 -5,-2 -5,-6 0,-1 0,-4 1,-7 0,-2 3,-18 3,-18l6 0 0 4 3 0 -1 6 -3 0c-1,5 -2,11 -2,12 0,2 1,2 2,2 1,0 2,0 2,0l-1 6z"/>
   <path class="fil3" d="M106 78c-3,1 -5,2 -7,2 -8,0 -12,-4 -12,-12 0,-9 5,-15 12,-15 6,0 9,3 9,9 0,2 0,4 -1,6l-13 0c0,4 2,6 6,6 2,0 4,-1 7,-2l-1 6zm-4 -15c0,0 1,-4 -3,-4 -2,0 -4,1 -4,4l7 0z"/>
   <path class="fil3" d="M59 61c0,4 2,6 5,8 3,1 3,1 3,2 0,2 -1,3 -4,3 -2,0 -4,-1 -6,-1 0,0 -1,5 -1,6 2,0 3,0 7,1 8,0 11,-3 11,-9 0,-4 -1,-6 -5,-7 -3,-2 -3,-2 -3,-3 0,-2 1,-2 3,-2 2,0 3,0 5,0l1 -6c-2,0 -4,0 -6,0 -7,0 -10,4 -10,8z"/>
   <path class="fil3" d="M198 79l-7 0 1 -2c-2,2 -4,3 -6,3 -5,0 -9,-5 -9,-11 0,-9 5,-16 11,-16 3,0 5,1 7,4l1 -10 7 0 -5 32zm-10 -6c3,0 5,-3 5,-9 0,-3 -1,-5 -3,-5 -3,0 -6,4 -6,9 0,3 2,5 4,5z"/>
   <path class="fil3" d="M168 53c-1,8 -2,16 -3,24l-1 2 7 0c2,-16 3,-19 7,-18 0,-4 2,-6 2,-8 -2,0 -4,1 -6,4 0,-1 0,-2 0,-4l-6 0z"/>
   <path class="fil3" d="M112 53c-1,8 -2,16 -3,24l-1 2 7 0c2,-16 3,-19 7,-18 0,-4 2,-6 2,-8 -2,0 -4,1 -6,4 0,-1 0,-2 0,-4l-6 0z"/>
   <path class="fil3" d="M201 77c0,-1 1,-2 2,-2 1,0 2,1 2,2 0,1 -1,2 -2,2 -1,0 -2,-1 -2,-2zm2 2c1,0 1,-1 1,-2 0,-1 0,-1 -1,-1 -1,0 -2,0 -2,1 0,1 1,2 2,2zm0 -1l-1 0 0 -2 1 0c0,0 0,0 0,0 1,0 1,1 1,1 0,0 0,0 -1,0l1 1 -1 0 0 -1 0 0 0 1zm0 -1l0 0c0,0 0,0 0,0 0,0 0,0 0,0 0,0 0,0 0,0 0,-1 0,-1 0,-1l0 0 0 1z"/>
  </g>
 </g>
</svg>
