<?xml version="1.0" encoding="UTF-8"?>
<!DOCTYPE svg PUBLIC "-//W3C//DTD SVG 1.1//EN" "http://www.w3.org/Graphics/SVG/1.1/DTD/svg11.dtd">
<!-- Creator: CorelDRAW X8 -->
<svg xmlns="http://www.w3.org/2000/svg" xml:space="preserve" width="8.4517mm" height="2.7469mm" version="1.1" style="shape-rendering:geometricPrecision; text-rendering:geometricPrecision; image-rendering:optimizeQuality; fill-rule:evenodd; clip-rule:evenodd"
viewBox="0 0 845 275"
 xmlns:xlink="http://www.w3.org/1999/xlink">
 <defs>
  <style type="text/css">
   <![CDATA[
    .fil1 {fill:#FAA841;fill-rule:nonzero}
    .fil0 {fill:white;fill-rule:nonzero}
   ]]>
  </style>
 </defs>
 <g id="Camada_x0020_1">
  <metadata id="CorelCorpID_0Corel-Layer"/>
  <g id="_1858100389904">
   <polygon class="fil0" points="366,268 296,268 338,7 408,7 "/>
   <path class="fil0" d="M239 7l-63 176 -7 -35 0 0 -28 -120c0,0 0,-21 -28,-21l-113 0 0 0c0,0 35,7 70,35l64 226 70 0 106 -261 -71 0 0 0z"/>
   <path class="fil0" d="M704 176l36 -99 21 99 -57 0 0 0zm78 92l63 0 -56 -261 -57 0c-28,0 -28,14 -28,14l-105 247 70 0 14 -36 92 0 7 36 0 0z"/>
   <path class="fil0" d="M606 70l7 -56c0,0 -28,-14 -64,-14 -28,0 -112,14 -112,85 0,70 98,70 98,105 0,35 -91,35 -119,7l-8 64c0,0 29,14 78,14 49,0 120,-28 120,-92 0,-70 -99,-77 -99,-106 0,-28 71,-28 99,-7l0 0z"/>
   <path class="fil1" d="M169 148l-28 -120c0,0 0,-21 -28,-21l-113 0 0 0c0,0 49,14 106,56 42,36 63,85 63,85l0 0z"/>
  </g>
 </g>
</svg>
